<svg width="16" height="16" viewBox="0 0 16 16" fill="none" xmlns="http://www.w3.org/2000/svg">
<path d="M0.75 11.77C1.16 11.77 1.5 11.43 1.5 11.02V2.56L14.22 15.28C14.37 15.43 14.56 15.5 14.75 15.5C14.94 15.5 15.13 15.43 15.28 15.28C15.57 14.99 15.57 14.51 15.28 14.22L2.56 1.5H11.02C11.43 1.5 11.77 1.16 11.77 0.75C11.77 0.34 11.43 0 11.02 0H0.75C0.65 0 0.56 0.0199999 0.46 0.0599999C0.28 0.13 0.13 0.28 0.0599999 0.46C0.0199999 0.56 0 0.65 0 0.75V11.02C0 11.43 0.34 11.77 0.75 11.77Z" fill="#292D32"/>
</svg>
