<svg width="16" height="16" viewBox="0 0 16 16" fill="none" xmlns="http://www.w3.org/2000/svg">
<path d="M9.38997 1.21L10.7999 4.03C10.9899 4.42 11.4999 4.79 11.9299 4.87L14.48 5.29C16.11 5.56 16.49 6.74 15.32 7.92L13.3299 9.91C12.9999 10.24 12.81 10.89 12.92 11.36L13.4899 13.82C13.9399 15.76 12.9 16.52 11.19 15.5L8.79994 14.08C8.36994 13.82 7.64995 13.82 7.21995 14.08L4.82994 15.5C3.11994 16.51 2.07995 15.76 2.52995 13.82L3.09996 11.36C3.20996 10.9 3.01995 10.25 2.68995 9.91L0.699963 7.92C-0.470037 6.75 -0.0900409 5.57 1.53996 5.29L4.08995 4.87C4.51995 4.8 5.02995 4.42 5.21995 4.03L6.62996 1.21C7.37996 -0.32 8.61997 -0.32 9.38997 1.21Z" fill="#292D32"/>
</svg>
