<svg width="24" height="24" viewBox="0 0 24 24" fill="none" xmlns="http://www.w3.org/2000/svg">
<path d="M18.5002 4.11007L13.5102 2.24007C12.6802 1.93007 11.3202 1.93007 10.4902 2.24007L5.50016 4.11007C4.35016 4.54007 3.41016 5.90007 3.41016 7.12007V14.5501C3.41016 15.7301 4.19016 17.2801 5.14016 17.9901L9.44016 21.2001C10.8502 22.2601 13.1702 22.2601 14.5802 21.2001L18.8802 17.9901C19.8302 17.2801 20.6102 15.7301 20.6102 14.5501V7.12007C20.5902 5.90007 19.6502 4.54007 18.5002 4.11007ZM11.9302 7.03007C13.1102 7.03007 14.0702 7.99007 14.0702 9.17007C14.0702 10.3301 13.1602 11.2601 12.0102 11.3001H11.9902H11.9702C11.9502 11.3001 11.9302 11.3001 11.9102 11.3001C10.7102 11.2601 9.81016 10.3301 9.81016 9.17007C9.80016 7.99007 10.7602 7.03007 11.9302 7.03007ZM14.1902 16.3601C13.5802 16.7601 12.7902 16.9701 12.0002 16.9701C11.2102 16.9701 10.4102 16.7701 9.81016 16.3601C9.24016 15.9801 8.93016 15.4601 8.92016 14.8901C8.92016 14.3301 9.24016 13.7901 9.81016 13.4101C11.0202 12.6101 12.9902 12.6101 14.2002 13.4101C14.7702 13.7901 15.0902 14.3101 15.0902 14.8801C15.0802 15.4401 14.7602 15.9801 14.1902 16.3601Z" fill="#292D32"/>
</svg>
